<svg width="208" height="208" viewBox="0 0 208 208" xmlns="http://www.w3.org/2000/svg" xmlns:xlink="http://www.w3.org/1999/xlink"><defs><path d="M64.888 94.551h20.276c.746 0 1.368.57 1.435 1.312 1.143 12.834 2.33 20.721 3.562 23.663 1.182 2.822 4.743 5.697 10.685 8.626a.36.36 0 0 1-.159.683H49.47a.36.36 0 0 1-.149-.688c5.227-2.377 8.707-5.251 10.44-8.62 1.836-3.57 3.065-11.44 3.69-23.61a1.44 1.44 0 0 1 1.437-1.366z" id="a"/><linearGradient x1="75.229%" y1="111.064%" x2="50%" y2="9.851%" id="b"><stop stop-color="#353535" stop-opacity=".185" offset="0%"/><stop stop-color="#353535" offset="100%"/></linearGradient><path d="M49.163 128.113h51.674v1.807a1.08 1.08 0 0 1-1.08 1.08H50.243a1.08 1.08 0 0 1-1.08-1.08v-1.807z" id="c"/><rect id="d" x="0" y="0" width="150" height="99.603" rx="4.32"/><rect id="e" x="3.589" y="4.691" width="142.464" height="90.942" rx="1.44"/><linearGradient x1="50%" y1="100%" x2="50%" y2="-64.99%" id="g"><stop stop-color="#353535" stop-opacity=".357" offset="0%"/><stop stop-color="#353535" offset="100%"/></linearGradient><ellipse id="f" cx="75" cy="2.887" rx="1.077" ry="1.083"/></defs><g fill="none" fill-rule="evenodd"><path d="M0 0h208v208H0z"/><g transform="translate(29 39)"><use fill="#939393" xlink:href="#a"/><path stroke="#353535" stroke-width="1.08" d="M49.556 128.634l-.011.005a.18.18 0 0 0 .03-.018zm.726-.34h49.643c-5.642-2.864-9.064-5.7-10.262-8.56-1.262-3.014-2.453-10.925-3.602-23.823a.9.9 0 0 0-.897-.82H64.888a.9.9 0 0 0-.899.854c-.627 12.246-1.865 20.167-3.748 23.828-1.712 3.329-5.037 6.165-9.96 8.522z"/></g><path d="M64.871 94.551h20.306a1.44 1.44 0 0 1 1.433 1.3c.683 6.994 1.188 11.658 1.512 13.995.666 4.796 1.346 8.023 2.04 9.68 1.91 4.561-33.257 5.552-30.401 0 1.247-2.425 2.214-6.834 2.902-13.229.2-1.851.456-5.316.771-10.395a1.44 1.44 0 0 1 1.437-1.351z" fill="url(#b)" transform="translate(29 39)"/><g transform="translate(29 39)"><use fill="#939393" xlink:href="#c"/><path stroke="#353535" stroke-width="1.08" d="M49.703 128.653v1.267c0 .298.241.54.54.54h49.514a.54.54 0 0 0 .54-.54v-1.267H49.703z"/></g><g transform="translate(29 39)"><use fill="#939393" xlink:href="#d"/><rect stroke="#353535" stroke-width="1.08" x=".54" y=".54" width="148.92" height="98.523" rx="4.32"/></g><g transform="translate(29 39)"><use fill="#FFF" xlink:href="#e"/><rect stroke="#353535" stroke-width=".72" x="3.949" y="5.051" width="141.744" height="90.222" rx="1.44"/></g><path d="M97.9 55.24l-3.24 3.258m-1.764 1.774l-8.67 8.718m-6.358 6.395l-8.603 8.651m-5.626 5.658l-4.854 4.882m57.057-37.171l-1.794 1.804m-1.794 2.166l-6.1 6.135M104 69.314L92.517 80.862m-1.795 1.805l-19.736 19.848m-5.024 5.052l-4.306 4.331m63.421-41.862l-4.76 4.786m-5.574 5.606l-14.4 14.482m-1.83 1.84l-6.168 6.203m-2.741 2.756l-2.12 2.132m-1.772 1.782l-2.884 2.9m36.058-17.225l-1.947 1.958m-1.799 1.808l-5.119 5.148m-5.558 5.59l-2.975 2.992" stroke="#8F8F8F" stroke-width=".72" stroke-linecap="square"/><g transform="translate(29 39)"><use fill="#353535" xlink:href="#f"/><ellipse stroke="url(#g)" stroke-width=".864" cx="75" cy="2.887" rx="1" ry="1"/></g></g></svg>