<svg width="208" height="208" viewBox="0 0 208 208" xmlns="http://www.w3.org/2000/svg" xmlns:xlink="http://www.w3.org/1999/xlink"><defs><rect id="a" x="66" y="30" width="78" height="149" rx="6.48"/><path d="M66 163.884h78v8.636a6.48 6.48 0 0 1-6.48 6.48H72.48a6.48 6.48 0 0 1-6.48-6.48v-8.636z" id="b"/><linearGradient x1="50%" y1="100%" x2="50%" y2="-64.99%" id="d"><stop stop-color="#353535" stop-opacity=".357" offset="0%"/><stop stop-color="#353535" offset="100%"/></linearGradient><rect id="c" x="94.167" y="170.362" width="21.667" height="1.801" rx=".9"/><path d="M72.48 30h65.04a6.48 6.48 0 0 1 6.48 6.48v8.636H66V36.48A6.48 6.48 0 0 1 72.48 30z" id="e"/><rect id="f" x="94.405" y="36.752" width="21.667" height="2.701" rx="1.35"/><ellipse id="g" cx="90.347" cy="38.103" rx="1.353" ry="1.35"/></defs><g fill="none" fill-rule="evenodd"><path d="M0 0h208v208H0z"/><use fill="#FFF" xlink:href="#a"/><rect stroke="#353535" stroke-width="1.8" x="66.9" y="30.9" width="76.2" height="147.2" rx="6.48"/><use fill="#939393" xlink:href="#b"/><path stroke="#353535" stroke-width="1.35" d="M66.675 164.56v7.96a5.805 5.805 0 0 0 5.805 5.805h65.04a5.805 5.805 0 0 0 5.805-5.805v-7.96h-76.65z"/><use fill="#353535" xlink:href="#c"/><rect stroke="url(#d)" stroke-width="1.08" x="94.707" y="170.902" width="20.587" height="1" rx=".5"/><use fill="#939393" xlink:href="#e"/><path stroke="#353535" stroke-width="1.35" d="M66.675 44.44h76.65v-7.96a5.805 5.805 0 0 0-5.805-5.805H72.48a5.805 5.805 0 0 0-5.805 5.805v7.96z"/><path d="M113.814 57.386l-2.973 2.963m-1.62 1.614l-7.955 7.93m-5.836 5.815l-7.895 7.869m-5.163 5.146l-4.455 4.44m56.333-38.87l-1.82 1.814m-2.353 2.346l-6.367 6.345m-2.118 2.111l-12.416 12.374m-1.772 1.767L86.21 102.173m-5.28 5.262l-4.638 4.623m51.064-36.318l-4.044 4.031m-4.737 4.72L106.34 96.688m-1.555 1.549l-5.24 5.223m-2.33 2.321l-1.8 1.795m-1.506 1.5l-2.45 2.443m30.481-14.724l-1.655 1.649m-1.528 1.523l-4.35 4.335m-4.723 4.707l-2.527 2.519" stroke="#8F8F8F" stroke-width="1.08" stroke-linecap="square"/><use fill="#353535" xlink:href="#f"/><rect stroke="url(#d)" stroke-width="1.08" x="94.945" y="37.292" width="20.587" height="1.621" rx=".81"/><use fill="#353535" xlink:href="#g"/><ellipse stroke="url(#d)" stroke-width="1.08" cx="90.347" cy="38.103" rx="1" ry="1"/></g></svg>