<svg width="208" height="208" viewBox="0 0 208 208" xmlns="http://www.w3.org/2000/svg" xmlns:xlink="http://www.w3.org/1999/xlink"><defs><rect id="a" x="0" y="0" width="154" height="112" rx="4.86"/><rect id="b" x="8.511" y="8.522" width="136.574" height="95.362" rx="1.62"/><linearGradient x1="50%" y1="100%" x2="50%" y2="-64.99%" id="d"><stop stop-color="#353535" stop-opacity=".357" offset="0%"/><stop stop-color="#353535" offset="100%"/></linearGradient><rect id="c" x="68.895" y="106.319" width="16.211" height="2.435" rx="1.217"/><ellipse id="e" cx="77" cy="4.87" rx="1.621" ry="1.623"/></defs><g fill="none" fill-rule="evenodd"><path d="M0 0h208v208H0z"/><g transform="translate(27 48)"><use fill="#939393" xlink:href="#a"/><rect stroke="#353535" stroke-width="1.215" x=".608" y=".608" width="152.785" height="110.785" rx="4.86"/></g><g transform="translate(27 48)"><use fill="#FFF" xlink:href="#b"/><rect stroke="#353535" stroke-width=".81" x="8.916" y="8.927" width="135.764" height="94.552" rx="1.62"/></g><g transform="translate(27 48)"><use fill="#353535" xlink:href="#c"/><rect stroke="url(#d)" stroke-width=".972" x="69.381" y="106.805" width="15.239" height="1.463" rx=".731"/></g><path d="M97.11 66.26l-3.658 3.665m-1.993 1.994l-9.79 9.804m-7.18 7.19l-9.716 9.728m-6.354 6.362l-5.482 5.49m64.437-41.797l-2.027 2.029m-2.026 2.434l-6.89 6.899M104 82.087L91.032 95.072m-2.027 2.03l-22.29 22.318m-5.673 5.681l-4.863 4.87m71.624-47.072l-5.375 5.381m-6.296 6.305l-16.263 16.284m-2.066 2.069l-6.966 6.975m-3.095 3.1l-2.394 2.396m-2 2.004l-3.259 3.262m40.722-19.371l-2.199 2.202m-2.03 2.034l-5.782 5.789m-6.278 6.286l-3.359 3.363" stroke="#8F8F8F" stroke-width=".81" stroke-linecap="square"/><g transform="translate(27 48)"><use fill="#353535" xlink:href="#e"/><ellipse stroke="url(#d)" stroke-width=".972" cx="77" cy="4.87" rx="1.135" ry="1.137"/></g></g></svg>